<?xml version="1.0" standalone="no"?>
<!DOCTYPE svg PUBLIC "-//W3C//DTD SVG 20010904//EN"
 "http://www.w3.org/TR/2001/REC-SVG-20010904/DTD/svg10.dtd">
<svg version="1.0" xmlns="http://www.w3.org/2000/svg"
 width="512.000000pt" height="512.000000pt" viewBox="0 0 512.000000 512.000000"
 preserveAspectRatio="xMidYMid meet">

<g transform="translate(0.000000,512.000000) scale(0.100000,-0.100000)"
fill="#000000" stroke="none">
<path d="M944 5106 c-55 -17 -125 -67 -163 -115 -127 -161 -189 -534 -163
-981 10 -161 9 -166 -13 -220 -75 -179 -125 -437 -125 -641 0 -57 -1 -60 -49
-106 -78 -76 -87 -149 -40 -330 28 -105 74 -202 160 -333 70 -109 72 -112 66
-163 -3 -29 -30 -155 -61 -282 -59 -245 -86 -403 -86 -506 l-1 -64 -60 -35
c-121 -69 -225 -210 -264 -355 -111 -418 197 -862 595 -859 97 1 170 20 249
65 53 31 143 113 174 158 l16 24 118 -36 c129 -40 300 -79 432 -98 81 -11 86
-14 160 -73 146 -118 253 -162 370 -154 99 7 192 62 248 145 11 17 25 23 52
23 31 0 42 -8 82 -53 25 -29 70 -66 100 -82 49 -27 62 -30 144 -29 69 0 103 6
143 22 69 29 153 82 222 142 52 44 60 48 140 59 137 20 310 59 426 96 60 19
114 35 119 35 6 0 28 -23 48 -50 47 -63 140 -132 215 -160 139 -53 274 -48
408 15 474 218 532 918 98 1172 l-49 29 -7 105 c-8 130 -25 225 -89 492 -75
311 -76 286 9 414 114 173 172 320 188 479 9 83 -12 140 -70 191 l-43 38 -6
130 c-11 210 -45 379 -116 560 -27 71 -27 72 -18 211 4 76 6 220 3 319 -16
512 -129 760 -368 805 -147 28 -344 -65 -550 -259 l-97 -92 -113 51 c-149 68
-346 133 -483 160 -139 28 -402 38 -542 20 -196 -24 -473 -109 -652 -199 l-62
-32 -97 88 c-247 225 -440 308 -598 259z m239 -169 c93 -46 226 -149 332 -256
44 -45 85 -81 92 -81 6 0 57 22 111 50 332 166 668 239 967 212 233 -22 429
-78 693 -199 l143 -66 112 110 c125 122 213 188 309 233 199 93 316 19 383
-244 38 -150 49 -300 42 -606 l-6 -275 34 -86 c63 -161 97 -335 111 -564 3
-66 11 -129 16 -140 6 -11 31 -39 56 -61 45 -40 46 -44 44 -91 -3 -66 -44
-208 -83 -286 -18 -34 -59 -102 -92 -152 -34 -49 -67 -107 -74 -127 -20 -59
-1 -176 76 -478 48 -189 71 -337 71 -462 l0 -95 55 -21 c137 -53 224 -151 269
-301 21 -70 21 -227 1 -305 -40 -153 -146 -286 -281 -352 -75 -37 -82 -39
-179 -39 -93 0 -105 2 -167 33 -77 38 -147 109 -187 190 -30 61 -20 61 -161 8
-100 -38 -355 -106 -396 -106 -22 0 -19 7 46 106 124 189 227 396 215 435 -16
48 -77 66 -107 32 -9 -10 -36 -59 -61 -109 -220 -439 -526 -741 -719 -709
-128 22 -218 246 -218 543 0 64 -3 76 -25 97 -31 32 -59 32 -90 0 -23 -22 -25
-32 -25 -112 0 -177 -44 -364 -105 -453 -16 -22 -46 -48 -72 -61 -56 -27 -107
-21 -201 26 -183 92 -377 320 -539 633 -78 149 -87 162 -124 162 -28 0 -69
-39 -69 -66 0 -25 149 -310 212 -404 34 -52 67 -101 72 -109 7 -11 0 -12 -40
-6 -89 13 -276 64 -385 105 -58 22 -109 40 -112 40 -3 0 -19 -25 -37 -56 -47
-84 -113 -150 -189 -187 -61 -30 -73 -32 -166 -32 -96 0 -105 2 -176 37 -121
60 -222 177 -269 311 -34 95 -39 263 -11 355 42 141 145 252 272 295 l44 15 6
133 c7 148 18 212 89 500 62 249 77 348 61 399 -6 22 -41 83 -78 137 -36 54
-81 130 -99 168 -39 82 -74 211 -74 277 0 43 3 50 41 80 63 51 70 73 80 242
13 229 49 398 122 568 21 48 23 62 16 148 -11 145 -10 432 1 555 20 202 62
349 126 432 64 84 167 94 297 30z"/>
<path d="M1360 3668 c-49 -34 -72 -101 -78 -229 -8 -181 42 -329 149 -443 107
-114 243 -164 413 -151 364 28 588 224 624 547 l7 63 85 0 85 0 7 -59 c20
-162 70 -271 167 -366 110 -108 263 -170 457 -185 330 -25 564 209 565 565 0
121 -27 216 -72 254 l-31 26 -1172 0 -1173 0 -33 -22z"/>
<path d="M2420 2977 c-94 -22 -142 -56 -142 -100 0 -43 41 -117 98 -177 32
-33 51 -60 42 -60 -32 0 -142 44 -186 75 -62 42 -85 49 -126 35 -70 -23 -104
-97 -72 -158 37 -72 170 -148 311 -177 104 -21 305 -21 410 0 159 33 305 127
320 207 9 49 -17 97 -68 121 -44 22 -84 16 -125 -17 -36 -31 -76 -51 -141 -70
l-54 -16 52 51 c49 50 111 155 111 189 0 28 -49 69 -104 86 -67 21 -254 27
-326 11z"/>
</g>
</svg>
